<svg width="1280" height="640" version="1.1" viewBox="0 0 1280 640" xmlns="http://www.w3.org/2000/svg"><rect transform="translate(0 -412.36)" y="412.36" width="1280" height="640" fill="#4caf50"/><rect transform="translate(0 -412.36)" x="80" y="492.36" width="1120" height="480" fill="#f6f0bb"/><g transform="translate(0 -412.36)"><g transform="matrix(5.0794 0 0 5.0794 1077.4 849.73)"><rect x=".125" y=".125" width="15.75" height="15.75" rx="2" fill="#bfd9bf" stroke="#862d2d" stroke-width=".25"/><text x="1.3" y="8.5" fill="#862d2d" font-family="sans-serif" font-size="10px">VC</text><text x="4.6999998" y="14.5" fill="#862d2d" font-family="sans-serif" font-size="10px">A</text></g><text x="242.96875" y="583.51074" fill="#000000" font-family="sans-serif" font-size="64px" letter-spacing="0px" stroke-width="1px" word-spacing="0px" style="line-height:125%" xml:space="preserve"><tspan x="242.96875" y="583.51074" fill="#862d2d" font-size="72px">cicirello/javadoc-cleanup</tspan></text><text x="120" y="872.36224" fill="#305030" font-family="sans-serif" font-size="44px" letter-spacing="0px" stroke-width="1px" word-spacing="0px" style="line-height:125%" xml:space="preserve"><tspan x="120" y="872.36224">Create mobile-friendly documentation sites by</tspan><tspan x="120" y="922.36224">post-processing javadocs in GitHub Actions</tspan></text><g transform="translate(105.59)"><path d="m455.03 732.49a3.75 3.75 0 0 1-2.6475-1.095l-5.5875-5.5725a3.75 3.75 0 1 1 5.295-5.31l2.94 2.9325 8.8575-8.85a3.7521 3.7521 0 0 1 5.31 5.3025l-11.513 11.498a3.78 3.78 0 0 1-2.655 1.095zm70.148-1.1025 11.505-11.49a3.75 3.75 0 0 0-5.3025-5.3025l-8.8574 8.85-2.94-2.9325a3.75 3.75 0 1 0-5.295 5.31l5.595 5.5725a3.7275 3.7275 0 0 0 5.295-6e-3zm-118.58-46.778 19.177-11.887a7.5 7.5 0 0 0 0.045-12.728l-19.177-12.075a7.5 7.5 0 0 0-11.498 6.345v23.97a7.5075 7.5075 0 0 0 11.452 6.375zm15.225-18.27-19.177 11.895v-23.97zm130.82 56.13c0 14.475-11.775 26.25-26.25 26.25a26.272 26.272 0 0 1-25.95-22.5h-15.6a26.272 26.272 0 0 1-25.95 22.5 26.265 26.265 0 0 1-25.95-22.5h-4.185c-7.29 0-13.875-2.9925-18.615-7.815v37.815c0 12.405 10.095 22.5 22.5 22.5h0.29983c1.83-12.698 12.75-22.5 25.95-22.5 14.475 0 26.25 11.775 26.25 26.25 0 14.475-11.775 26.25-26.25 26.25a26.265 26.265 0 0 1-25.95-22.5h-0.29983c-16.545 0-30-13.455-30-30v-53.258a37.56 37.56 0 0 1-30-36.742c0-20.678 16.822-37.5 37.5-37.5s37.5 16.823 37.5 37.5a37.538 37.538 0 0 1-37.14 37.485 18.615 18.615 0 0 0 18.255 15.015h4.185c1.83-12.697 12.75-22.5 25.95-22.5a26.265 26.265 0 0 1 25.95 22.5h15.6a26.272 26.272 0 0 1 25.95-22.5c14.475 0 26.25 11.775 26.25 26.25zm-112.5 60c0 10.335 8.415 18.75 18.75 18.75 10.335 0 18.75-8.415 18.75-18.75 0-10.335-8.415-18.75-18.75-18.75-10.335 0-18.75 8.415-18.75 18.75zm-30-86.25c16.545 0 30-13.455 30-30 0-16.545-13.455-30-30-30-16.545 0-30 13.455-30 30 0 16.545 13.455 30 30 30zm67.5 26.25c0-10.335-8.415-18.75-18.75-18.75-10.335 0-18.75 8.415-18.75 18.75 0 10.335 8.415 18.75 18.75 18.75 10.335 0 18.75-8.415 18.75-18.75zm67.5 0c0-10.335-8.415-18.75-18.75-18.75-10.335 0-18.75 8.415-18.75 18.75 0 10.335 8.415 18.75 18.75 18.75 10.335 0 18.75-8.415 18.75-18.75zm-97.5 60a3.75 3.75 0 1 0 7.5 0 3.75 3.75 0 0 0-7.5 0zm15 0a3.75 3.75 0 1 0 7.5 0 3.75 3.75 0 0 0-7.5 0zm90 0c0 14.475-11.775 26.25-26.25 26.25a26.272 26.272 0 0 1-25.95-22.515c-0.0506 6e-3 -0.0973 0.0392-0.1575 0.0392l-3.795 0.12768h-0.12768a3.75 3.75 0 0 1-0.11982-7.4925l3.795-0.12768c0.135-0.0168 0.26268 0.045 0.3898 0.0506a26.272 26.272 0 0 1 25.965-22.582c14.475 0 26.25 11.775 26.25 26.25zm-7.5 0c0-10.335-8.415-18.75-18.75-18.75-10.335 0-18.75 8.415-18.75 18.75 0 10.335 8.415 18.75 18.75 18.75 10.335 0 18.75-8.415 18.75-18.75z" fill="#6e5494" stroke-width="7.5"/><g transform="matrix(2.4006 0 0 2.4006 560.54 581.4)"><rect x="12" y="10.8" width="43" height="92" fill="#fff"/><path d="m51 8.8h-0.2-35c-1.8 0-3.3 0.6-4.4 1.9-1.1 1.2-1.6 2.8-1.7 4.6v82.9c0 1.8 0.6 3.4 1.7 4.6 1.1 1.3 2.5 1.9 4.4 1.8h35.2c1.5-0.1 2.8-0.7 3.8-1.8 1.1-1.3 1.7-2.8 1.7-4.6v-82.9c0-1.8-0.6-3.4-1.7-4.6-1-1.2-2.2-1.8-3.8-1.9m3 9.6c0.2 0 0.3 0.1 0.5 0.2s0.2 0.3 0.2 0.5v74.8c0 0.2-0.1 0.3-0.2 0.5s-0.3 0.2-0.5 0.2h-41.8c-0.2 0-0.3-0.1-0.5-0.2s-0.2-0.3-0.2-0.5v-74.8c0-0.2 0.1-0.3 0.2-0.5s0.3-0.2 0.5-0.2h41.8m-18-5.2c0.2 0 0.3 0.1 0.5 0.2 0.1 0.1 0.2 0.3 0.2 0.5s-0.1 0.3-0.2 0.5c-0.1 0.1-0.3 0.2-0.5 0.2h-6.3c-0.2 0-0.3-0.1-0.5-0.2-0.1-0.1-0.2-0.3-0.2-0.5s0.1-0.3 0.2-0.5c0.1-0.1 0.3-0.2 0.5-0.2h6.3m-2.9 82c0.5 0 0.9 0.1 1.3 0.3 0.3 0.1 0.5 0.3 0.7 0.4 0.1 0.1 0.3 0.2 0.4 0.3l0.2 0.2c0.6 0.7 0.9 1.5 0.9 2.5v0.2c0 1-0.4 1.9-1.1 2.6s-1.6 1.1-2.6 1.1h-0.2c-1 0-1.9-0.4-2.6-1.1s-1.1-1.5-1.2-2.5v-0.3c0.1-1 0.4-1.8 1-2.4 0.1-0.1 0.2-0.2 0.3-0.2l0.3-0.3c0.4-0.3 0.9-0.5 1.4-0.6 0.3-0.1 0.5-0.1 0.8-0.1h0.4m1.3 1.8c-0.2-0.1-0.4-0.3-0.6-0.3-0.3-0.1-0.5-0.1-0.8-0.1h-0.2c-0.2 0-0.3 0-0.4 0.1-0.3 0-0.6 0.2-0.8 0.4l-0.4 0.4c-0.4 0.4-0.6 0.9-0.6 1.5v0.2c0 0.6 0.3 1.1 0.8 1.6s1 0.7 1.7 0.7h-0.1c0.6 0 1.2-0.3 1.6-0.7 0.5-0.5 0.7-1 0.7-1.6v-0.3c0-0.6-0.2-1.1-0.5-1.5-0.1-0.1-0.2-0.1-0.2-0.2-0.1-0.2-0.1-0.2-0.2-0.2z"/></g><g transform="matrix(5.3334 0 0 5.3334 576.35 651.36)"><path d="m8.851 18.56s-0.917 0.534 0.653 0.714c1.902 0.218 2.874 0.187 4.969-0.211 0 0 0.552 0.346 1.321 0.646-4.699 2.013-10.633-0.118-6.943-1.149m-0.575-2.627s-1.028 0.761 0.542 0.924c2.032 0.209 3.636 0.227 6.413-0.308 0 0 0.384 0.389 0.987 0.602-5.679 1.661-12.007 0.13-7.942-1.218m11.054 4.571s0.679 0.559-0.747 0.991c-2.712 0.822-11.288 1.069-13.669 0.033-0.856-0.373 0.75-0.89 1.254-0.998 0.527-0.114 0.828-0.093 0.828-0.093-0.953-0.671-6.156 1.317-2.643 1.887 9.58 1.553 17.462-0.7 14.977-1.82m-10.038-7.294s-4.362 1.036-1.544 1.412c1.189 0.159 3.561 0.123 5.77-0.062 1.806-0.152 3.618-0.477 3.618-0.477s-0.637 0.272-1.098 0.587c-4.429 1.165-12.986 0.623-10.522-0.568 2.082-1.006 3.776-0.892 3.776-0.892m7.824 4.374c4.503-2.34 2.421-4.589 0.968-4.285-0.355 0.074-0.515 0.138-0.515 0.138s0.132-0.207 0.385-0.297c2.875-1.011 5.086 2.981-0.928 4.562 0-1e-3 0.07-0.062 0.09-0.118m-7.382 6.34c4.322 0.277 10.959-0.153 11.116-2.198 0 0-0.302 0.775-3.572 1.391-3.688 0.694-8.239 0.613-10.937 0.168 0-1e-3 0.553 0.457 3.393 0.639" fill="#007396"/><path d="m13.116 11.475c1.158 1.333-0.304 2.533-0.304 2.533s2.939-1.518 1.589-3.418c-1.261-1.772-2.228-2.652 3.007-5.688 0-1e-3 -8.216 2.051-4.292 6.573m1.285-11.475s2.494 2.494-2.365 6.33c-3.896 3.077-0.888 4.832-1e-3 6.836-2.274-2.053-3.943-3.858-2.824-5.539 1.644-2.469 6.197-3.665 5.19-7.627" fill="#ed8b00"/></g></g></g></svg>
